# This file uses centimeters as units for non-parametric coordinates.

v -0.125333 0.000000 -0.992115
v -0.481754 0.000000 -0.876307
v -0.684547 0.000000 -0.728969
v -0.844328 0.000000 -0.535827
v -0.951057 0.000000 -0.309017
v -0.998027 0.000000 -0.062790
v -0.982287 0.000000 0.187382
v -0.844328 0.000000 0.535827
v -0.684547 0.000000 0.728969
v -0.368124 0.000000 0.929777
v 0.125334 0.000000 0.992115
v 0.481755 0.000000 0.876306
v 0.684548 0.000000 0.728968
v 0.844329 0.000000 0.535826
v 0.982288 0.000000 0.187380
v 0.998027 0.000000 -0.062792
v 0.951056 0.000000 -0.309018
v 0.844327 0.000000 -0.535828
v 0.684546 0.000000 -0.728970
v 0.248688 0.000000 -0.968584
vn 0.000000 1.000000 0.000000
vn 0.000000 1.000000 0.000000
vn 0.000000 1.000000 0.000000
vn 0.000000 1.000000 0.000000
vn 0.000000 1.000000 0.000000
vn 0.000000 1.000000 0.000000
vn 0.000000 1.000000 0.000000
vn 0.000000 1.000000 0.000000
vn 0.000000 1.000000 0.000000
vn 0.000000 1.000000 0.000000
vn 0.000000 1.000000 0.000000
vn 0.000000 1.000000 0.000000
vn 0.000000 1.000000 0.000000
vn 0.000000 1.000000 0.000000
vn 0.000000 1.000000 0.000000
vn 0.000000 1.000000 0.000000
vn 0.000000 1.000000 0.000000
vn 0.000000 1.000000 0.000000
vn 0.000000 1.000000 0.000000
vn 0.000000 1.000000 0.000000
vn 0.000000 1.000000 0.000000
vn 0.000000 1.000000 0.000000
vn 0.000000 1.000000 0.000000
vn 0.000000 1.000000 0.000000
vn 0.000000 1.000000 0.000000
vn 0.000000 1.000000 0.000000
vn 0.000000 1.000000 0.000000
vn 0.000000 1.000000 0.000000
vn 0.000000 1.000000 0.000000
vn 0.000000 1.000000 0.000000
vn 0.000000 1.000000 0.000000
vn 0.000000 1.000000 0.000000
vn 0.000000 1.000000 0.000000
vn 0.000000 1.000000 0.000000
vn 0.000000 1.000000 0.000000
vn 0.000000 1.000000 0.000000
vn 0.000000 1.000000 0.000000
vn 0.000000 1.000000 0.000000
vn 0.000000 1.000000 0.000000
vn 0.000000 1.000000 0.000000
vn 0.000000 1.000000 0.000000
vn 0.000000 1.000000 0.000000
vn 0.000000 1.000000 0.000000
vn 0.000000 1.000000 0.000000
vn 0.000000 1.000000 0.000000
vn 0.000000 1.000000 0.000000
vn 0.000000 1.000000 0.000000
vn 0.000000 1.000000 0.000000
vn 0.000000 1.000000 0.000000
vn 0.000000 1.000000 0.000000
vn 0.000000 1.000000 0.000000
vn 0.000000 1.000000 0.000000
vn 0.000000 1.000000 0.000000
vn 0.000000 1.000000 0.000000
g circle:Mesh
f 19//1 1//2 2//3
f 19//4 2//5 3//6
f 19//7 3//8 4//9
f 19//10 4//11 5//12
f 19//13 5//14 6//15
f 19//16 6//17 7//18
f 19//19 7//20 8//21
f 19//22 8//23 9//24
f 19//25 9//26 10//27
f 19//28 10//29 11//30
f 19//31 11//32 12//33
f 19//34 12//35 13//36
f 19//37 13//38 14//39
f 19//40 14//41 15//42
f 19//43 15//44 16//45
f 19//46 16//47 17//48
f 19//49 17//50 18//51
f 19//52 20//53 1//54
