# This file uses centimeters as units for non-parametric coordinates.

v 0.000000 0.000000 0.000000
v -0.125333 0.000000 -0.992115
v -0.248690 0.000000 -0.968583
v -0.481754 0.000000 -0.876307
v -0.684547 0.000000 -0.728969
v -0.770513 0.000000 -0.637424
v -0.844328 0.000000 -0.535827
v -0.951057 0.000000 -0.309017
v -0.998027 0.000000 -0.062790
v -0.998027 0.000000 0.062791
v -0.982287 0.000000 0.187382
v -0.904827 0.000000 0.425780
v -0.844328 0.000000 0.535827
v -0.684547 0.000000 0.728969
v -0.587785 0.000000 0.809017
v -0.481753 0.000000 0.876307
v -0.368124 0.000000 0.929777
v -0.125332 0.000000 0.992115
v 0.125334 0.000000 0.992115
v 0.248691 0.000000 0.968583
v 0.481755 0.000000 0.876306
v 0.684548 0.000000 0.728968
v 0.844329 0.000000 0.535826
v 0.904828 0.000000 0.425778
v 0.982288 0.000000 0.187380
v 0.998027 0.000000 0.062789
v 0.998027 0.000000 -0.062792
v 0.982287 0.000000 -0.187383
v 0.951056 0.000000 -0.309018
v 0.904826 0.000000 -0.425781
v 0.844327 0.000000 -0.535828
v 0.684546 0.000000 -0.728970
v 0.587784 0.000000 -0.809018
v 0.481752 0.000000 -0.876308
v 0.248688 0.000000 -0.968584
v 0.125331 0.000000 -0.992115
vn 0.000000 1.000000 0.000000
vn 0.000000 1.000000 0.000000
vn 0.000000 1.000000 0.000000
vn 0.000000 1.000000 0.000000
vn 0.000000 1.000000 0.000000
vn 0.000000 1.000000 0.000000
vn 0.000000 1.000000 0.000000
vn 0.000000 1.000000 0.000000
vn 0.000000 1.000000 0.000000
vn 0.000000 1.000000 0.000000
vn 0.000000 1.000000 0.000000
vn 0.000000 1.000000 0.000000
vn 0.000000 1.000000 0.000000
vn 0.000000 1.000000 0.000000
vn 0.000000 1.000000 0.000000
vn 0.000000 1.000000 0.000000
vn 0.000000 1.000000 0.000000
vn 0.000000 1.000000 0.000000
vn 0.000000 1.000000 0.000000
vn 0.000000 1.000000 0.000000
vn 0.000000 1.000000 0.000000
vn 0.000000 1.000000 0.000000
vn 0.000000 1.000000 0.000000
vn 0.000000 1.000000 0.000000
vn 0.000000 1.000000 0.000000
vn 0.000000 1.000000 0.000000
vn 0.000000 1.000000 0.000000
vn 0.000000 1.000000 0.000000
vn 0.000000 1.000000 0.000000
vn 0.000000 1.000000 0.000000
vn 0.000000 1.000000 0.000000
vn 0.000000 1.000000 0.000000
vn 0.000000 1.000000 0.000000
vn 0.000000 1.000000 0.000000
vn 0.000000 1.000000 0.000000
vn 0.000000 1.000000 0.000000
vn 0.000000 1.000000 0.000000
vn 0.000000 1.000000 0.000000
vn 0.000000 1.000000 0.000000
vn 0.000000 1.000000 0.000000
vn 0.000000 1.000000 0.000000
vn 0.000000 1.000000 0.000000
vn 0.000000 1.000000 0.000000
vn 0.000000 1.000000 0.000000
vn 0.000000 1.000000 0.000000
vn 0.000000 1.000000 0.000000
vn 0.000000 1.000000 0.000000
vn 0.000000 1.000000 0.000000
vn 0.000000 1.000000 0.000000
vn 0.000000 1.000000 0.000000
vn 0.000000 1.000000 0.000000
vn 0.000000 1.000000 0.000000
vn 0.000000 1.000000 0.000000
vn 0.000000 1.000000 0.000000
vn 0.000000 1.000000 0.000000
vn 0.000000 1.000000 0.000000
vn 0.000000 1.000000 0.000000
vn 0.000000 1.000000 0.000000
vn 0.000000 1.000000 0.000000
vn 0.000000 1.000000 0.000000
vn 0.000000 1.000000 0.000000
vn 0.000000 1.000000 0.000000
vn 0.000000 1.000000 0.000000
vn 0.000000 1.000000 0.000000
vn 0.000000 1.000000 0.000000
vn 0.000000 1.000000 0.000000
vn 0.000000 1.000000 0.000000
vn 0.000000 1.000000 0.000000
vn 0.000000 1.000000 0.000000
vn 0.000000 1.000000 0.000000
vn 0.000000 1.000000 0.000000
vn 0.000000 1.000000 0.000000
vn 0.000000 1.000000 0.000000
vn 0.000000 1.000000 0.000000
vn 0.000000 1.000000 0.000000
vn 0.000000 1.000000 0.000000
vn 0.000000 1.000000 0.000000
vn 0.000000 1.000000 0.000000
vn 0.000000 1.000000 0.000000
vn 0.000000 1.000000 0.000000
vn 0.000000 1.000000 0.000000
vn 0.000000 1.000000 0.000000
vn 0.000000 1.000000 0.000000
vn 0.000000 1.000000 0.000000
vn 0.000000 1.000000 0.000000
vn 0.000000 1.000000 0.000000
vn 0.000000 1.000000 0.000000
vn 0.000000 1.000000 0.000000
vn 0.000000 1.000000 0.000000
vn 0.000000 1.000000 0.000000
vn 0.000000 1.000000 0.000000
vn 0.000000 1.000000 0.000000
vn 0.000000 1.000000 0.000000
vn 0.000000 1.000000 0.000000
vn 0.000000 1.000000 0.000000
vn 0.000000 1.000000 0.000000
vn 0.000000 1.000000 0.000000
vn 0.000000 1.000000 0.000000
vn 0.000000 1.000000 0.000000
vn 0.000000 1.000000 0.000000
vn 0.000000 1.000000 0.000000
vn 0.000000 1.000000 0.000000
vn 0.000000 1.000000 0.000000
vn 0.000000 1.000000 0.000000
vn 0.000000 1.000000 0.000000
g circle:Mesh
f 1//1 2//2 3//3
f 1//4 3//5 4//6
f 1//7 4//8 5//9
f 1//10 5//11 6//12
f 1//13 6//14 7//15
f 1//16 7//17 8//18
f 1//19 8//20 9//21
f 1//22 9//23 10//24
f 1//25 10//26 11//27
f 1//28 11//29 12//30
f 1//31 12//32 13//33
f 1//34 13//35 14//36
f 1//37 14//38 15//39
f 1//40 15//41 16//42
f 1//43 16//44 17//45
f 1//46 17//47 18//48
f 1//49 18//50 19//51
f 1//52 19//53 20//54
f 1//55 20//56 21//57
f 1//58 21//59 22//60
f 1//61 22//62 23//63
f 1//64 23//65 24//66
f 1//67 24//68 25//69
f 1//70 25//71 26//72
f 1//73 26//74 27//75
f 1//76 27//77 28//78
f 1//79 28//80 29//81
f 1//82 29//83 30//84
f 1//85 30//86 31//87
f 1//88 31//89 32//90
f 1//91 32//92 33//93
f 1//94 33//95 34//96
f 1//97 34//98 35//99
f 1//100 35//101 36//102
f 1//103 36//104 2//105
