# This file uses centimeters as units for non-parametric coordinates.

v 0.000000 0.000000 -1.000000
v 0.304977 0.003000 -0.943733
v 0.703067 0.003000 -0.699783
v 0.886967 0.003000 -0.446667
v 0.983648 0.003000 -0.149111
v 0.983648 0.003000 0.163758
v 0.886966 0.003000 0.461315
v 0.703067 0.003000 0.714431
v 0.449950 0.003000 0.898331
v 0.304977 0.003000 0.958381
v -0.004041 0.000000 1.007324
v -0.313058 0.000000 0.958380
v -0.458031 0.000000 0.898330
v -0.591826 0.000000 0.816340
v -0.711147 0.000000 0.714430
v 0.000000 1.000000 0.000000
v -0.895047 0.000000 0.461313
v -0.991728 0.000000 0.163757
v -0.991728 0.000000 -0.149112
v -0.955096 0.000000 -0.301695
v -0.813056 0.000000 -0.580463
v -0.591824 0.000000 -0.801694
v -0.313055 0.000000 -0.943733
vn 0.165306 0.706025 -0.688624
vn 0.165306 0.706025 -0.688624
vn 0.165306 0.706025 -0.688624
vn 0.370017 0.706032 -0.603827
vn 0.370017 0.706032 -0.603827
vn 0.370017 0.706032 -0.603827
vn 0.538520 0.706026 -0.459917
vn 0.538520 0.706026 -0.459917
vn 0.538520 0.706026 -0.459917
vn 0.654305 0.706005 -0.271002
vn 0.654305 0.706005 -0.271002
vn 0.654305 0.706005 -0.271002
vn 0.706013 0.706013 -0.055601
vn 0.706013 0.706013 -0.055601
vn 0.706013 0.706013 -0.055601
vn 0.688624 0.706025 0.165306
vn 0.688624 0.706025 0.165306
vn 0.688624 0.706025 0.165306
vn 0.603827 0.706032 0.370017
vn 0.603827 0.706032 0.370017
vn 0.603827 0.706032 0.370017
vn 0.459917 0.706026 0.538520
vn 0.459917 0.706026 0.538520
vn 0.459917 0.706026 0.538520
vn 0.271002 0.706005 0.654305
vn 0.271002 0.706005 0.654305
vn 0.271002 0.706005 0.654305
vn 0.165306 0.706025 0.688624
vn 0.165306 0.706025 0.688624
vn 0.165306 0.706025 0.688624
vn -0.055601 0.706013 0.706013
vn -0.055601 0.706013 0.706013
vn -0.055601 0.706013 0.706013
vn -0.271002 0.706005 0.654305
vn -0.271002 0.706005 0.654305
vn -0.271002 0.706005 0.654305
vn -0.370017 0.706032 0.603827
vn -0.370017 0.706032 0.603827
vn -0.370017 0.706032 0.603827
vn -0.459917 0.706026 0.538520
vn -0.459917 0.706026 0.538520
vn -0.459917 0.706026 0.538520
vn -0.603827 0.706032 0.370017
vn -0.603827 0.706032 0.370017
vn -0.603827 0.706032 0.370017
vn -0.688624 0.706025 0.165306
vn -0.688624 0.706025 0.165306
vn -0.688624 0.706025 0.165306
vn -0.706013 0.706013 0.055601
vn -0.706013 0.706013 0.055601
vn -0.706013 0.706013 0.055601
vn -0.688624 0.706025 -0.165306
vn -0.688624 0.706025 -0.165306
vn -0.688624 0.706025 -0.165306
vn -0.603827 0.706032 -0.370017
vn -0.603827 0.706032 -0.370017
vn -0.603827 0.706032 -0.370017
vn -0.459917 0.706026 -0.538520
vn -0.459917 0.706026 -0.538520
vn -0.459917 0.706026 -0.538520
vn -0.271002 0.706005 -0.654305
vn -0.271002 0.706005 -0.654305
vn -0.271002 0.706005 -0.654305
vn -0.055601 0.706013 -0.706013
vn -0.055601 0.706013 -0.706013
vn -0.055601 0.706013 -0.706013
g cone:Mesh
f 1//1 16//2 2//3
f 2//4 16//5 3//6
f 3//7 16//8 4//9
f 4//10 16//11 5//12
f 5//13 16//14 6//15
f 6//16 16//17 7//18
f 7//19 16//20 8//21
f 8//22 16//23 9//24
f 9//25 16//26 10//27
f 10//28 16//29 11//30
f 11//31 16//32 12//33
f 12//34 16//35 13//36
f 13//37 16//38 14//39
f 14//40 16//41 15//42
f 15//43 16//44 17//45
f 17//46 16//47 18//48
f 18//49 16//50 19//51
f 19//52 16//53 20//54
f 20//55 16//56 21//57
f 21//58 16//59 22//60
f 22//61 16//62 23//63
f 23//64 16//65 1//66
