# This file uses centimeters as units for non-parametric coordinates.

v 0.000000 0.000000 -1.000000
v 0.703067 0.003000 -0.699783
v 0.983648 0.003000 -0.149111
v 0.886966 0.003000 0.461315
v 0.449950 0.003000 0.898331
v -0.004041 0.000000 1.007324
v -0.458031 0.000000 0.898330
v 0.000000 1.000000 0.000000
v -0.895047 0.000000 0.461313
v -0.991728 0.000000 0.163757
v -0.955096 0.000000 -0.301695
v -0.591824 0.000000 -0.801694
vn 0.370017 0.706032 -0.603827
vn 0.370017 0.706032 -0.603827
vn 0.370017 0.706032 -0.603827
vn 0.654305 0.706005 -0.271002
vn 0.654305 0.706005 -0.271002
vn 0.654305 0.706005 -0.271002
vn 0.688624 0.706025 0.165306
vn 0.688624 0.706025 0.165306
vn 0.688624 0.706025 0.165306
vn 0.459917 0.706026 0.538520
vn 0.459917 0.706026 0.538520
vn 0.459917 0.706026 0.538520
vn 0.165306 0.706025 0.688624
vn 0.165306 0.706025 0.688624
vn 0.165306 0.706025 0.688624
vn -0.271002 0.706005 0.654305
vn -0.271002 0.706005 0.654305
vn -0.271002 0.706005 0.654305
vn -0.459917 0.706026 0.538520
vn -0.459917 0.706026 0.538520
vn -0.459917 0.706026 0.538520
vn -0.688624 0.706025 0.165306
vn -0.688624 0.706025 0.165306
vn -0.688624 0.706025 0.165306
vn -0.688624 0.706025 -0.165306
vn -0.688624 0.706025 -0.165306
vn -0.688624 0.706025 -0.165306
vn -0.603827 0.706032 -0.370017
vn -0.603827 0.706032 -0.370017
vn -0.603827 0.706032 -0.370017
vn -0.271002 0.706005 -0.654305
vn -0.271002 0.706005 -0.654305
vn -0.271002 0.706005 -0.654305
g cone:Mesh
f 1//1 8//2 2//3
f 2//4 8//5 3//6
f 3//7 8//8 4//9
f 4//10 8//11 5//12
f 5//13 8//14 6//15
f 6//16 8//17 7//18
f 7//19 8//20 9//21
f 9//22 8//23 10//24
f 10//25 8//26 11//27
f 11//28 8//29 12//30
f 12//31 8//32 1//33
