#csucsok
v -0.00 0.00 -1.0
v 0.152395 0.003 -0.980365
v 0.304977 0.003 -0.943733
v 0.449951 0.003 -0.883683
v 0.583745 0.003 -0.801693
v 0.703067 0.003 -0.699783
v 0.804977 0.003 -0.580461
v 0.886967 0.003 -0.446667
v 0.947017 0.003 -0.301693
v 0.983648 0.003 -0.149111
v 0.995960 0.003 0.007324
v 0.983648 0.003 0.163758
v 0.947017 0.003 0.316341
v 0.886966 0.003 0.461315
v 0.804977 0.003 0.595109
v 0.703067 0.003 0.714431
v 0.583745 0.003 0.816341
v 0.449950 0.003 0.898331
v 0.304977 0.003 0.958381
v 0.152394 0.003 0.995012
v -0.004041 0.0 1.007324
v -0.160475 0.0 0.995012
v -0.313058 0.0 0.958380
v -0.458031 0.0 0.898330
v -0.591826 0.0 0.816340
v -0.711147 0.0 0.714430
v -0.813058 0.0 0.595108
v -0.0 1.0 0.0
v -0.895047 0.0 0.461313
v -0.955097 0.0 0.316340
v -0.991728 0.0 0.163757
v -1.00 0.0 0.00
v -0.991728 0.0 -0.149112
v -0.955096 0.0 -0.301695
v -0.895046 0.0 -0.446668
v -0.813056 0.0 -0.580463
v -0.711145 0.0 -0.699784
v -0.591824 0.0 -0.801694
v -0.458029 0.0 -0.883684
v -0.313055 0.0 -0.943733
v -0.160472 0.0 -0.980365
#normalvektorok
vn 0.0556 0.7060 -0.7060
vn 0.1653 0.7060 -0.6886
vn 0.2710 0.7060 -0.6543
vn 0.3700 0.7060 -0.6038
vn 0.4599 0.7060 -0.5385
vn 0.5385 0.7060 -0.4599
vn 0.6038 0.7060 -0.3700
vn 0.6543 0.7060 -0.2710
vn 0.6886 0.7060 -0.1653
vn 0.7060 0.7060 -0.0556
vn 0.7060 0.7060 0.0556
vn 0.6886 0.7060 0.1653
vn 0.6543 0.7060 0.2710
vn 0.6038 0.7060 0.3700
vn 0.5385 0.7060 0.4599
vn 0.4599 0.7060 0.5385
vn 0.3700 0.7060 0.6038
vn 0.2710 0.7060 0.6543
vn 0.1653 0.7060 0.6886
vn 0.0556 0.7060 0.7060
vn -0.0556 0.7060 0.7060
vn -0.1653 0.7060 0.6886
vn -0.2710 0.7060 0.6543
vn -0.3700 0.7060 0.6038
vn -0.4599 0.7060 0.5385
vn -0.5385 0.7060 0.4599
vn -0.6038 0.7060 0.3700
vn -0.6543 0.7060 0.2710
vn -0.6886 0.7060 0.1653
vn -0.7060 0.7060 0.0556
vn -0.7060 0.7060 -0.0556
vn -0.6886 0.7060 -0.1653
vn -0.6543 0.7060 -0.2710
vn -0.6038 0.7060 -0.3700
vn -0.5385 0.7060 -0.4599
vn -0.4599 0.7060 -0.5385
vn -0.3700 0.7060 -0.6038
vn -0.2710 0.7060 -0.6543
vn -0.1653 0.7060 -0.6886
vn -0.0556 0.7060 -0.7060
vn 0.0000 -1.0000 -0.0000
#osszekotott haromszogek
f 1//1 28//1 2//1
f 2//2 28//2 3//2
f 3//3 28//3 4//3
f 4//4 28//4 5//4
f 5//5 28//5 6//5
f 6//6 28//6 7//6
f 7//7 28//7 8//7
f 8//8 28//8 9//8
f 9//9 28//9 10//9
f 10//10 28//10 11//10
f 11//11 28//11 12//11
f 12//12 28//12 13//12
f 13//13 28//13 14//13
f 14//14 28//14 15//14
f 15//15 28//15 16//15
f 16//16 28//16 17//16
f 17//17 28//17 18//17
f 18//18 28//18 19//18
f 19//19 28//19 20//19
f 20//20 28//20 21//20
f 21//21 28//21 22//21
f 22//22 28//22 23//22
f 23//23 28//23 24//23
f 24//24 28//24 25//24
f 25//25 28//25 26//25
f 26//26 28//26 27//26
f 27//27 28//27 29//27
f 29//28 28//28 30//28
f 30//29 28//29 31//29
f 31//30 28//30 32//30
f 32//31 28//31 33//31
f 33//32 28//32 34//32
f 34//33 28//33 35//33
f 35//34 28//34 36//34
f 36//35 28//35 37//35
f 37//36 28//36 38//36
f 38//37 28//37 39//37
f 39//38 28//38 40//38
f 40//39 28//39 41//39
f 41//40 28//40 1//40