# This file uses centimeters as units for non-parametric coordinates.

v 0.000000 0.309017 -0.951057
v 0.156361 -0.005978 -0.987224
v 0.126558 0.587785 -0.799057
v 0.458870 -0.006031 -0.887462
v 0.000000 0.809017 -0.587786
v 0.500001 0.707107 -0.500000
v 0.630037 0.453991 -0.630037
v 0.250001 0.951057 -0.181635
v 0.847399 0.309017 -0.431770
v 0.630038 0.707107 -0.321019
v 0.799058 0.587785 -0.126557
v 0.672500 0.707107 0.218509
v 0.987690 0.156434 0.000001
v 0.793894 0.453991 0.404510
v 0.431772 0.891007 0.140292
v 0.523721 0.453991 0.720841
v 0.500001 0.707107 0.500002
v 0.139384 0.453991 0.880039
v 0.156393 -0.003363 0.987429
v 0.000000 0.707107 0.707109
v -0.148778 0.309017 0.939349
v 0.140291 0.891007 0.431772
v -0.321020 0.707107 0.630039
v -0.587641 -0.003144 0.808819
v -0.126559 0.987688 0.091951
v -0.630038 0.453991 0.630038
v -0.523722 0.809017 0.266850
v -0.847399 0.453991 0.275337
v -0.698403 0.707107 0.110617
v -0.939349 0.309017 -0.148778
v -0.431772 0.891007 -0.140290
v -0.720841 0.587785 -0.367286
v -0.415628 0.809017 -0.415627
v -0.559018 0.309017 -0.769421
v -0.321020 0.707107 -0.630037
v 0.808645 -0.005848 -0.587515
v 0.987271 -0.005386 -0.156368
v 0.987303 -0.004971 0.156374
v 0.810969 -0.004297 0.583958
v 0.584348 -0.003858 0.810770
v -0.311803 -0.003126 0.949639
v -0.890767 -0.003429 0.453869
v -0.987397 -0.003764 0.156389
v -0.987365 -0.004178 -0.156383
v -0.890683 -0.004631 -0.453825
v -0.706825 -0.005079 -0.706825
v -0.453795 -0.005477 -0.890623
v -0.150644 -0.005791 -0.987689
vn 0.215789 0.381680 -0.898752
vn 0.215789 0.381680 -0.898752
vn 0.215789 0.381680 -0.898752
vn 0.226992 0.232791 -0.945665
vn 0.226992 0.232791 -0.945665
vn 0.226992 0.232791 -0.945665
vn 0.647472 0.078197 -0.758067
vn 0.647472 0.078197 -0.758067
vn 0.647472 0.078197 -0.758067
vn 0.739509 0.232803 -0.631608
vn 0.739509 0.232803 -0.631608
vn 0.739509 0.232803 -0.631608
vn 0.727606 0.521305 -0.445904
vn 0.727606 0.521305 -0.445904
vn 0.727606 0.521305 -0.445904
vn 0.446511 0.851920 -0.273606
vn 0.446511 0.851920 -0.273606
vn 0.446511 0.851920 -0.273606
vn 0.898486 0.232796 -0.372194
vn 0.898486 0.232796 -0.372194
vn 0.898486 0.232796 -0.372194
vn 0.898752 0.381680 -0.215789
vn 0.898752 0.381680 -0.215789
vn 0.898752 0.381680 -0.215789
vn 0.993866 0.078197 0.078197
vn 0.993866 0.078197 0.078197
vn 0.993866 0.078197 0.078197
vn 0.522097 0.851895 0.041100
vn 0.522097 0.851895 0.041100
vn 0.522097 0.851895 0.041100
vn 0.829799 0.521299 0.199200
vn 0.829799 0.521299 0.199200
vn 0.829799 0.521299 0.199200
vn 0.898486 0.232796 0.372194
vn 0.898486 0.232796 0.372194
vn 0.898486 0.232796 0.372194
vn 0.921047 0.078204 0.381519
vn 0.921047 0.078204 0.381519
vn 0.921047 0.078204 0.381519
vn 0.446511 0.851920 0.273606
vn 0.446511 0.851920 0.273606
vn 0.446511 0.851920 0.273606
vn 0.648912 0.521310 0.554210
vn 0.648912 0.521310 0.554210
vn 0.648912 0.521310 0.554210
vn 0.739509 0.232803 0.631608
vn 0.739509 0.232803 0.631608
vn 0.739509 0.232803 0.631608
vn 0.291403 0.648307 0.703408
vn 0.291403 0.648307 0.703408
vn 0.291403 0.648307 0.703408
vn 0.372194 0.232796 0.898486
vn 0.372194 0.232796 0.898486
vn 0.372194 0.232796 0.898486
vn 0.122203 0.851921 0.509212
vn 0.122203 0.851921 0.509212
vn 0.122203 0.851921 0.509212
vn 0.059702 0.648320 0.759024
vn 0.059702 0.648320 0.759024
vn 0.059702 0.648320 0.759024
vn -0.076302 0.232806 0.969525
vn -0.076302 0.232806 0.969525
vn -0.076302 0.232806 0.969525
vn -0.177694 0.648280 0.740377
vn -0.177694 0.648280 0.740377
vn -0.177694 0.648280 0.740377
vn -0.122203 0.851921 0.509212
vn -0.122203 0.851921 0.509212
vn -0.122203 0.851921 0.509212
vn -0.353710 0.381711 0.853924
vn -0.353710 0.381711 0.853924
vn -0.353710 0.381711 0.853924
vn -0.249188 0.923454 0.291785
vn -0.249188 0.923454 0.291785
vn -0.249188 0.923454 0.291785
vn -0.739509 0.232803 0.631608
vn -0.739509 0.232803 0.631608
vn -0.739509 0.232803 0.631608
vn -0.703408 0.648307 0.291403
vn -0.703408 0.648307 0.291403
vn -0.703408 0.648307 0.291403
vn -0.969400 0.078200 0.232700
vn -0.969400 0.078200 0.232700
vn -0.969400 0.078200 0.232700
vn -0.382488 0.923470 0.030099
vn -0.382488 0.923470 0.030099
vn -0.382488 0.923470 0.030099
vn -0.850728 0.521317 0.067002
vn -0.850728 0.521317 0.067002
vn -0.850728 0.521317 0.067002
vn -0.969525 0.232806 0.076302
vn -0.969525 0.232806 0.076302
vn -0.969525 0.232806 0.076302
vn -0.993866 0.078197 -0.078197
vn -0.993866 0.078197 -0.078197
vn -0.993866 0.078197 -0.078197
vn -0.829227 0.232808 -0.508117
vn -0.829227 0.232808 -0.508117
vn -0.829227 0.232808 -0.508117
vn -0.554210 0.521310 -0.648912
vn -0.554210 0.521310 -0.648912
vn -0.554210 0.521310 -0.648912
vn -0.520912 0.078202 -0.850020
vn -0.520912 0.078202 -0.850020
vn -0.520912 0.078202 -0.850020
vn -0.200489 0.923448 -0.327182
vn -0.200489 0.923448 -0.327182
vn -0.200489 0.923448 -0.327182
vn -0.372194 0.232796 -0.898486
vn -0.372194 0.232796 -0.898486
vn -0.372194 0.232796 -0.898486
vn -0.326601 0.521301 -0.788402
vn -0.326601 0.521301 -0.788402
vn -0.326601 0.521301 -0.788402
vn -0.051001 0.759411 -0.648609
vn -0.051001 0.759411 -0.648609
vn -0.051001 0.759411 -0.648609
vn 0.078197 0.078197 -0.993866
vn 0.078197 0.078197 -0.993866
vn 0.078197 0.078197 -0.993866
vn 0.248999 0.759396 -0.601097
vn 0.248999 0.759396 -0.601097
vn 0.248999 0.759396 -0.601097
vn 0.445904 0.521305 -0.727606
vn 0.445904 0.521305 -0.727606
vn 0.445904 0.521305 -0.727606
vn 0.482903 0.381702 -0.788104
vn 0.482903 0.381702 -0.788104
vn 0.482903 0.381702 -0.788104
vn 0.340106 0.851915 -0.398207
vn 0.340106 0.851915 -0.398207
vn 0.340106 0.851915 -0.398207
vn 0.648912 0.521310 -0.554210
vn 0.648912 0.521310 -0.554210
vn 0.648912 0.521310 -0.554210
vn 0.788402 0.521301 -0.326601
vn 0.788402 0.521301 -0.326601
vn 0.788402 0.521301 -0.326601
vn 0.945665 0.232791 -0.226992
vn 0.945665 0.232791 -0.226992
vn 0.945665 0.232791 -0.226992
vn 0.509212 0.851921 -0.122203
vn 0.509212 0.851921 -0.122203
vn 0.509212 0.851921 -0.122203
vn 0.648609 0.759411 0.051001
vn 0.648609 0.759411 0.051001
vn 0.648609 0.759411 0.051001
vn 0.898752 0.381680 0.215789
vn 0.898752 0.381680 0.215789
vn 0.898752 0.381680 0.215789
vn 0.788402 0.521301 0.326601
vn 0.788402 0.521301 0.326601
vn 0.788402 0.521301 0.326601
vn 0.216301 0.972206 0.089601
vn 0.216301 0.972206 0.089601
vn 0.216301 0.972206 0.089601
vn 0.398207 0.851915 0.340106
vn 0.398207 0.851915 0.340106
vn 0.398207 0.851915 0.340106
vn 0.739509 0.232803 0.631608
vn 0.739509 0.232803 0.631608
vn 0.739509 0.232803 0.631608
vn 0.200489 0.923448 0.327182
vn 0.200489 0.923448 0.327182
vn 0.200489 0.923448 0.327182
vn 0.381519 0.078204 0.921047
vn 0.381519 0.078204 0.921047
vn 0.381519 0.078204 0.921047
vn 0.177694 0.648280 0.740377
vn 0.177694 0.648280 0.740377
vn 0.177694 0.648280 0.740377
vn 0.076302 0.232806 0.969525
vn 0.076302 0.232806 0.969525
vn 0.076302 0.232806 0.969525
vn -0.372194 0.232796 0.898486
vn -0.372194 0.232796 0.898486
vn -0.372194 0.232796 0.898486
vn -0.600305 0.381703 0.702806
vn -0.600305 0.381703 0.702806
vn -0.600305 0.381703 0.702806
vn -0.340106 0.851915 0.398207
vn -0.340106 0.851915 0.398207
vn -0.340106 0.851915 0.398207
vn -0.578981 0.648279 0.494484
vn -0.578981 0.648279 0.494484
vn -0.578981 0.648279 0.494484
vn -0.829227 0.232808 0.508117
vn -0.829227 0.232808 0.508117
vn -0.829227 0.232808 0.508117
vn -0.788402 0.521301 0.326601
vn -0.788402 0.521301 0.326601
vn -0.788402 0.521301 0.326601
vn -0.522097 0.851895 0.041100
vn -0.522097 0.851895 0.041100
vn -0.522097 0.851895 0.041100
vn -0.227699 0.972194 -0.054700
vn -0.227699 0.972194 -0.054700
vn -0.227699 0.972194 -0.054700
vn -0.969400 0.078200 -0.232700
vn -0.969400 0.078200 -0.232700
vn -0.969400 0.078200 -0.232700
vn -0.632618 0.759421 -0.151904
vn -0.632618 0.759421 -0.151904
vn -0.632618 0.759421 -0.151904
vn -0.829799 0.521299 -0.199200
vn -0.829799 0.521299 -0.199200
vn -0.829799 0.521299 -0.199200
vn -0.898486 0.232796 -0.372194
vn -0.898486 0.232796 -0.372194
vn -0.898486 0.232796 -0.372194
vn -0.554724 0.759433 -0.339915
vn -0.554724 0.759433 -0.339915
vn -0.554724 0.759433 -0.339915
vn -0.739509 0.232803 -0.631608
vn -0.739509 0.232803 -0.631608
vn -0.739509 0.232803 -0.631608
vn -0.339915 0.759433 -0.554724
vn -0.339915 0.759433 -0.554724
vn -0.339915 0.759433 -0.554724
vn -0.445904 0.521305 -0.727606
vn -0.445904 0.521305 -0.727606
vn -0.445904 0.521305 -0.727606
vn -0.200489 0.923448 -0.327182
vn -0.200489 0.923448 -0.327182
vn -0.200489 0.923448 -0.327182
vn -0.381519 0.078204 -0.921047
vn -0.381519 0.078204 -0.921047
vn -0.381519 0.078204 -0.921047
vn -0.066903 0.521321 -0.850734
vn -0.066903 0.521321 -0.850734
vn -0.066903 0.521321 -0.850734
g hemisphere:Mesh
f 1//1 3//2 4//3
f 1//4 4//5 2//6
f 7//7 36//8 4//9
f 7//10 9//11 36//12
f 10//13 9//14 7//15
f 8//16 10//17 6//18
f 36//19 9//20 37//21
f 9//22 11//23 13//24
f 13//25 38//26 37//27
f 10//28 15//29 12//30
f 12//31 14//32 11//33
f 13//34 14//35 39//36
f 13//37 39//38 38//39
f 15//40 17//41 12//42
f 17//43 16//44 14//45
f 14//46 40//47 39//48
f 17//49 18//50 16//51
f 18//52 19//53 16//54
f 22//55 20//56 17//57
f 20//58 21//59 18//60
f 21//61 41//62 19//63
f 20//64 23//65 21//66
f 22//67 23//68 20//69
f 21//70 23//71 24//72
f 22//73 25//74 27//75
f 26//76 42//77 24//78
f 27//79 29//80 26//81
f 28//82 43//83 42//84
f 27//85 25//86 31//87
f 29//88 30//89 28//90
f 43//91 28//92 30//93
f 30//94 44//95 43//96
f 45//97 32//98 46//99
f 33//100 34//101 32//102
f 34//103 47//104 46//105
f 33//106 8//107 5//108
f 34//109 1//110 48//111
f 34//112 35//113 1//114
f 5//115 3//116 35//117
f 48//118 1//119 2//120
f 5//121 6//122 3//123
f 3//124 6//125 7//126
f 4//127 3//128 7//129
f 5//130 8//131 6//132
f 6//133 10//134 7//135
f 10//136 11//137 9//138
f 37//139 9//140 13//141
f 10//142 8//143 15//144
f 11//145 10//146 12//147
f 13//148 11//149 14//150
f 12//151 17//152 14//153
f 15//154 8//155 25//156
f 15//157 22//158 17//159
f 14//160 16//161 40//162
f 22//163 15//164 25//165
f 40//166 16//167 19//168
f 17//169 20//170 18//171
f 18//172 21//173 19//174
f 21//175 24//176 41//177
f 24//178 23//179 26//180
f 22//181 27//182 23//183
f 23//184 27//185 26//186
f 42//187 26//188 28//189
f 26//190 29//191 28//192
f 29//193 27//194 31//195
f 31//196 25//197 8//198
f 30//199 45//200 44//201
f 29//202 31//203 32//204
f 30//205 29//206 32//207
f 45//208 30//209 32//210
f 32//211 31//212 33//213
f 46//214 32//215 34//216
f 33//217 5//218 35//219
f 34//220 33//221 35//222
f 33//223 31//224 8//225
f 34//226 48//227 47//228
f 35//229 3//230 1//231
